<svg id="Capa_1" enable-background="new 0 0 512 512" height="512" viewBox="0 0 512 512" width="512" xmlns="http://www.w3.org/2000/svg"><g><path d="m486.43 409.886-27.658-6.915c-8.302-2.075-14.01-9.521-14.01-17.943v-10.174c-7.188 4.933-43.236 4.933-50.424 0v10.174c0 8.423-5.708 15.868-14.01 17.943l-24.768 6.192-12.669 84.154c0 .637 12.152 18.683 11.515 18.683h156.859c.402 0 .728-.326.728-.728v-68.643c.002-15.488-10.539-28.987-25.563-32.743z" fill="#544f57"/><path d="m114.523 510.846 20.981-138.87c-6.522 3.721-35.043 0-43.053 0l-.001 5.082c-9.33 0-18.024 2.729-25.212-2.204v10.174c0 8.423-5.708 15.868-14.01 17.943l-27.658 6.915c-15.024 3.756-25.565 17.256-25.565 32.743v68.643c0 .402.326.728.728.728h114.943c-.637 0-1.153-.517-1.153-1.154z" fill="#544f57"/><path d="m140.08 291.995c.057-.89.113-1.766.167-2.624 1.761-27.595-20.146-50.944-47.798-50.944-27.573.001-49.561 23.286-47.797 50.944 1.508 23.642 1.934 30.313 3.288 51.531 1.498 23.481 20.98 41.76 44.509 41.76 8.01 0 15.551-2.119 22.073-5.84.001-.001 10.049-75.914 25.558-84.827z" fill="#665e66"/><path d="m200.013 274.469c-1.629.768-3.35 1.387-5.149 1.837l-41.751 10.438c-22.68 5.67-38.591 26.048-38.591 49.426v174.676c0 .637.517 1.154 1.154 1.154h238.73c.637 0 1.154-.517 1.154-1.154l-.001-174.639c0-2.589 1.709-4.868 4.195-5.592l81.606-23.791c16.579-4.833 27.978-20.03 27.978-37.299v-155.747h-56.888l-9.82 127.665c-.229 2.973-2.304 5.48-5.183 6.259l-87.218 23.617z" fill="#dfdde2"/><path d="m338.446 131.47h-13.924l-3.238 50.745h.646c18.573 0 33.63-15.057 33.63-33.63.001-9.452-7.662-17.115-17.114-17.115z" fill="#df9380"/><path d="m374.117 326.427c.326 5.107.639 10.02.923 14.474 1.498 23.481 20.98 41.76 44.509 41.76 23.529 0 43.011-18.279 44.509-41.76 1.354-21.218 1.779-27.889 3.288-51.531.158-2.476.126-4.916-.084-7.309-4.003 11.738-93.145 44.366-93.145 44.366z" fill="#665e66"/><path d="m68.362 73.485 9.05-4.525c11.87-5.935 21.494-15.559 27.429-27.429l4.525-9.05c.423-.846 1.631-.846 2.054 0l4.525 9.05c5.935 11.87 15.559 21.494 27.429 27.429l9.05 4.525c.846.423.846 1.631 0 2.054l-9.05 4.525c-11.87 5.935-21.494 15.559-27.429 27.429l-4.525 9.05c-.423.846-1.631.846-2.054 0l-4.525-9.05c-5.935-11.87-15.559-21.494-27.429-27.429l-9.05-4.525c-.846-.423-.846-1.631 0-2.054z" fill="#f4dd45"/><path d="m37.122 162.7 7.542-3.771c9.891-4.946 17.912-12.966 22.858-22.858l3.771-7.542c.353-.705 1.359-.705 1.712 0l3.771 7.542c4.946 9.891 12.966 17.912 22.858 22.858l7.542 3.771c.705.353.705 1.359 0 1.712l-7.542 3.771c-9.891 4.946-17.912 12.966-22.858 22.858l-3.771 7.542c-.353.705-1.359.705-1.712 0l-3.771-7.542c-4.946-9.891-12.966-17.912-22.858-22.858l-7.542-3.771c-.705-.353-.705-1.36 0-1.712z" fill="#f4dd45"/><path d="m428.13 100.476v148.444c0 17.269-11.399 32.466-27.978 37.299l-59.357 17.305c-15.67 4.568-26.443 18.931-26.443 35.253l.001 120.569c0 17.701-14.349 32.05-32.05 32.05h-167.78v19.45c0 .637.517 1.154 1.154 1.154h238.73c.637 0 1.154-.517 1.154-1.154l-.001-174.639c0-2.589 1.709-4.868 4.195-5.592l81.606-23.791c16.579-4.833 27.978-20.03 27.978-37.299v-155.747z" fill="#c6c1c8"/><g><path d="m89.381 347.873h-1.132c-4.142 0-7.5-3.358-7.5-7.5s3.358-7.5 7.5-7.5h.904v-9.308c0-4.142 3.358-7.5 7.5-7.5s7.5 3.358 7.5 7.5v9.535c0 8.146-6.627 14.773-14.772 14.773z" fill="#544f57"/></g><path d="m35.954 512v-45.307c0-4.142-3.358-7.5-7.5-7.5s-7.5 3.358-7.5 7.5v45.307z" fill="#454045"/><path d="m423.74 347.873h-1.131c-8.146 0-14.772-6.627-14.772-14.772v-9.535c0-4.142 3.358-7.5 7.5-7.5s7.5 3.358 7.5 7.5v9.308h.903c4.142 0 7.5 3.358 7.5 7.5s-3.358 7.499-7.5 7.499z" fill="#544f57"/><path d="m491.036 512v-45.307c0-4.142-3.358-7.5-7.5-7.5s-7.5 3.358-7.5 7.5v45.307z" fill="#544f57"/><path d="m162.014 512v-139.496c0-4.142-3.358-7.5-7.5-7.5s-7.5 3.358-7.5 7.5v139.496z" fill="#c6c1c8"/><path d="m147.014 491.396h15v20.604h-15z" fill="#afaab4"/><path d="m359.755 330.614 10.805-3.15v-28.799c0-4.142-3.358-7.5-7.5-7.5s-7.5 3.358-7.5 7.5v37.542c0-2.589 1.709-4.868 4.195-5.593z" fill="#c6c1c8"/><path d="m370.56 298.665c0-1.288-.325-2.499-.896-3.558l-14.104 4.112v36.988c0-2.589 1.709-4.868 4.195-5.592l10.805-3.15z" fill="#afaab4"/><path d="m440.881 148.949h-31.137l-1.154 15h32.291c4.142 0 7.5-3.358 7.5-7.5s-3.358-7.5-7.5-7.5z" fill="#c6c1c8"/><path d="m440.881 148.949h-12.751v15h12.751c4.142 0 7.5-3.358 7.5-7.5s-3.358-7.5-7.5-7.5z" fill="#afaab4"/><path d="m292.13 249.22v-15.359c-10.851 7.446-65.266 7.446-76.117 0v15.359c0 3.088-.507 6.079-1.449 8.886l39.508 58.061 39.508-58.061c-.943-2.807-1.45-5.799-1.45-8.886z" fill="#df9380"/><path d="m254.071 284.444-24.68 11.295 10.458 31.372h28.444l10.095-30.284z" fill="#dd636e"/><path d="m255.632 453.127 26.489-33.695c.252-.32.359-.731.297-1.133l-14.124-91.187h-28.444l-14.124 91.187c-.062.403.045.813.297 1.133l26.491 33.695c.793 1.011 2.324 1.011 3.118 0z" fill="#da4a54"/><path d="m189.428 131.47h-19.732c-9.452 0-17.115 7.663-17.115 17.115 0 18.573 15.057 33.63 33.63 33.63h.646z" fill="#eaac9d"/><path d="m338.446 131.47h-21.395l4.233 50.745h.646c18.573 0 33.63-15.057 33.63-33.63.001-9.452-7.662-17.115-17.114-17.115z" fill="#df9380"/><path d="m322.872 157.335 3.351-52.514c2.658-41.656-30.411-76.902-72.152-76.902-2.826 0-23.636-.486-43.46 14.513-1.531 1.158-1.897 3.309-.832 4.906.872 1.308 1.92 2.88 2.834 4.251l-.638-.957c-1.045-1.568-2.743-2.579-4.619-2.752s-3.73.512-5.045 1.861c-13.743 14.097-21.751 33.748-20.39 55.079l3.039 47.625z" fill="#9d6b6b"/><path d="m213.973 80.69c1.445 2.168 3.823 3.341 6.247 3.341 1.43 0 2.875-.408 4.153-1.261 3.447-2.297 4.378-6.954 2.08-10.4l-14.683-22.026c-1.055-1.403-2.657-2.302-4.415-2.464-1.876-.173-3.73.512-5.045 1.861-1.799 1.845-3.499 3.786-5.094 5.813z" fill="#8b5e5e"/><path d="m322.872 157.335-24.964-41.606c-.726-1.21-2.034-1.951-3.446-1.951h-25.507c-19.141 0-38.02-4.457-55.14-13.017-1.331-.666-2.95-.127-3.616 1.204-3.702 7.404-15.264 30.527-25.241 50.48l1.924 30.163c2.262 35.446 31.67 63.038 67.189 63.038 35.518 0 64.927-27.592 67.188-63.038z" fill="#ffcbbe"/><path d="m297.908 115.729c-.726-1.21-2.034-1.951-3.446-1.951h-25.507c-.356 0-.711-.002-1.067-.005l6.031 10.052c5.043 8.405 7.409 18.145 6.785 27.927l-.654 10.252c-2.262 35.446-31.67 63.038-67.188 63.038-2.596 0-5.16-.148-7.682-.435 12.305 12.989 29.707 21.039 48.891 21.039 35.518 0 64.927-27.592 67.188-63.038l1.612-25.273z" fill="#eaac9d"/><g><path d="m249.435 189.317h-1.708c-4.143 0-7.5-3.358-7.5-7.5s3.357-7.5 7.5-7.5h1.708c1.918 0 3.479-1.56 3.479-3.478v-14.394c0-4.142 3.357-7.5 7.5-7.5s7.5 3.358 7.5 7.5v14.394c0 10.189-8.29 18.478-18.479 18.478z" fill="#eaac9d"/></g><path d="m212.501 256.731 41.57 27.713-27.057 27.057c-.718.718-1.912.599-2.475-.245l-26.625-39.938c-.425-.638-.341-1.487.201-2.029l12.358-12.358c.541-.541 1.391-.625 2.028-.2z" fill="#f1f1f4"/><path d="m295.641 256.731-41.57 27.713 27.057 27.057c.718.718 1.912.599 2.475-.245l26.625-39.938c.425-.638.341-1.487-.201-2.029l-12.358-12.358c-.541-.541-1.39-.625-2.028-.2z" fill="#f1f1f4"/><path d="m452.043 0h-22.297c-9.552 0-17.296 7.744-17.296 17.296v53.815-3.231c0-13.925-11.289-25.214-25.214-25.214h-.573c-1.468 0-2.658 1.19-2.658 2.658v43.889c0 13.566 10.998 24.564 24.564 24.564h60.769v-96.481c.001-9.552-7.743-17.296-17.295-17.296z" fill="#ffcbbe"/></g></svg>