<svg height="512" viewBox="0 0 512 512" width="512" xmlns="http://www.w3.org/2000/svg"><path d="m76.833 435.167h364.667a20 20 0 0 0 20-20v-368h-314.667l-70 70z" fill="#f1e8dc"/><circle cx="411.264" cy="74.168" fill="#9a99a1" r="7.5"/><circle cx="332.264" cy="74.168" fill="#9a99a1" r="7.5"/><circle cx="253.264" cy="74.168" fill="#9a99a1" r="7.5"/><circle cx="174.264" cy="74.168" fill="#9a99a1" r="7.5"/><path d="m258.41 216.38h52a0 0 0 0 1 0 0v30a5 5 0 0 1 -5 5h-42a5 5 0 0 1 -5-5v-30a0 0 0 0 1 0 0z" fill="#54c1ed" transform="matrix(0 1 -1 0 518.29 -50.53)"/><path d="m328.91 176.88h121a5 5 0 0 1 5 5v30a0 0 0 0 1 0 0h-126a5 5 0 0 1 -5-5v-25a5 5 0 0 1 5-5z" fill="#f4644d" transform="matrix(0 1 -1 0 583.79 -195.03)"/><path d="m280.41 203.38h78a0 0 0 0 1 0 0v35a0 0 0 0 1 0 0h-73a5 5 0 0 1 -5-5v-30a0 0 0 0 1 0 0z" fill="#8bc932" transform="matrix(0 1 -1 0 540.29 -98.53)"/><path d="m301.91 189.88h105a0 0 0 0 1 0 0v35a0 0 0 0 1 0 0h-100a5 5 0 0 1 -5-5v-30a0 0 0 0 1 0 0z" fill="#f9d36b" transform="matrix(0 1 -1 0 561.79 -147.03)"/><path d="m126.83 435.17h-50v-318l30-30v328a20.007 20.007 0 0 0 20 20z" fill="#efdbc6"/><path d="m76.833 117.168h50a20 20 0 0 0 20-20v-50z" fill="#e5cfbd"/><g fill="#9a99a1"><path d="m233.034 195.168h-110a7.5 7.5 0 1 1 0-15h110a7.5 7.5 0 0 1 0 15z"/><path d="m202.889 229.169h-39.134a7.5 7.5 0 0 1 0-15h39.134a7.5 7.5 0 0 1 0 15z"/><path d="m140.535 229.169h-17.5a7.5 7.5 0 0 1 0-15h17.5a7.5 7.5 0 0 1 0 15z"/><path d="m233.034 161.164h-82a7.5 7.5 0 0 1 0-15h82a7.5 7.5 0 0 1 0 15z"/><circle cx="130.534" cy="153.668" r="7.5"/><circle cx="225.534" cy="221.668" r="7.5"/><path d="m396.91 355h-110a7.5 7.5 0 0 1 0-15h110a7.5 7.5 0 1 1 0 15z"/><path d="m366.765 389h-39.133a7.5 7.5 0 0 1 0-15h39.133a7.5 7.5 0 0 1 0 15z"/><path d="m304.411 389h-17.5a7.5 7.5 0 0 1 0-15h17.5a7.5 7.5 0 0 1 0 15z"/><path d="m396.91 321h-82a7.5 7.5 0 0 1 0-15h82a7.5 7.5 0 0 1 0 15z"/><circle cx="294.41" cy="313.498" r="7.5"/><circle cx="389.41" cy="381.502" r="7.5"/></g><path d="m260.5 383.793v-29.586a10 10 0 0 0 -9.094-9.959l-22.067-2.007a89.381 89.381 0 0 0 -6.386-15.35l14.2-17.042a10 10 0 0 0 -.611-13.473l-20.921-20.921a10 10 0 0 0 -13.473-.611l-17.042 14.2a89.381 89.381 0 0 0 -15.35-6.386l-2.007-22.067a10 10 0 0 0 -9.959-9.094h-29.583a10 10 0 0 0 -9.959 9.094l-2.007 22.067a89.381 89.381 0 0 0 -15.35 6.386l-17.042-14.2a10 10 0 0 0 -13.473.611l-20.921 20.921a10 10 0 0 0 -.611 13.473l14.2 17.042a89.381 89.381 0 0 0 -6.386 15.35l-22.067 2.007a10 10 0 0 0 -9.094 9.959v29.586a10 10 0 0 0 9.094 9.959l22.067 2.007a89.381 89.381 0 0 0 6.386 15.35l-14.2 17.042a10 10 0 0 0 .611 13.473l20.921 20.921a10 10 0 0 0 13.473.611l17.042-14.2a89.381 89.381 0 0 0 15.35 6.386l2.007 22.067a10 10 0 0 0 9.959 9.094h29.586a10 10 0 0 0 9.959-9.094l2.007-22.067a89.381 89.381 0 0 0 15.35-6.386l17.042 14.2a10 10 0 0 0 13.473-.611l20.921-20.921a10 10 0 0 0 .611-13.473l-14.2-17.042a89.381 89.381 0 0 0 6.386-15.35l22.067-2.007a10 10 0 0 0 9.091-9.959zm-117.5 27.741a42.534 42.534 0 1 1 42.534-42.534 42.584 42.584 0 0 1 -42.534 42.534z" fill="#46bee8"/><path d="m70.38 275.45-20.93 20.93a10 10 0 0 0 -.61 13.47l14.2 17.03a90.715 90.715 0 0 1 37.84-37.84l-17.03-14.2a10 10 0 0 0 -13.47.61z" fill="#17afde"/><path d="m63.04 411.12-14.2 17.03a10 10 0 0 0 .61 13.47l20.93 20.92a9.995 9.995 0 0 0 13.47.62l17.03-14.2a90.715 90.715 0 0 1 -37.84-37.84z" fill="#17afde"/><path d="m52.6 369a90.335 90.335 0 0 1 4.04-26.76l-22.05 2.01a9.993 9.993 0 0 0 -9.09 9.96v29.58a9.993 9.993 0 0 0 9.09 9.96l22.05 2.01a90.335 90.335 0 0 1 -4.04-26.76z" fill="#17afde"/><path d="m143 314a55 55 0 1 0 55 55 55.061 55.061 0 0 0 -55-55zm0 80a25 25 0 1 1 25-25 25.03 25.03 0 0 1 -25 25z" fill="#17afde"/><path d="m436.5 100.5v206.286l20.467 43.974a5 5 0 0 0 9.066 0l20.467-43.974v-206.286z" fill="#ffb155"/><path d="m486.5 70.5h-50v-20a25 25 0 0 1 25-25 25 25 0 0 1 25 25z" fill="#f4644d" fill-rule="evenodd"/><path d="m436.5 70.5h50v30h-50z" fill="#e6f0f6"/><path d="m436.5 70.5h20v30h-20z" fill="#aacfe2"/><path d="m471.5 339.01-5.47 11.75a5 5 0 0 1 -9.06 0l-20.47-43.97v-206.29h20v206.29z" fill="#f19b40"/><path d="m456.5 26v44.5h-20v-20a25.009 25.009 0 0 1 20-24.5z" fill="#e8533a" fill-rule="evenodd"/></svg>